<svg width="784" height="544" viewBox="0 0 784 544" fill="none" xmlns="http://www.w3.org/2000/svg">
<path d="M887.844 293.263C841.836 362.653 755.021 378.543 683.19 354.375C659.686 346.274 637.011 335.141 615.577 321.178C603.127 313.204 590.974 304.457 579.07 295.136C576.141 292.853 573.212 290.535 570.313 288.169C568.337 286.577 566.368 284.965 564.406 283.333C539.823 262.935 516.203 240.559 492.981 218.311C435.008 162.773 375.448 105.525 304.221 79.0262C289.547 73.5696 270.564 71.017 261.489 85.6772C253.617 98.4054 258.422 116.426 265.084 130.08C289.796 180.653 334.652 212.585 379.548 237.139C424.444 261.694 472.002 281.589 511.03 317.49C550.059 353.391 579.854 410.452 571.872 468.051C564.991 517.687 530.629 558.014 490.677 575.59C450.725 593.155 406.167 590.707 364.636 579.302C323.105 567.886 283.68 547.968 243.598 530.802C219.433 520.439 187.841 513.273 171.806 536.984C158.264 557.019 166.048 588.623 182.539 605.297C199.03 621.972 221.349 627.557 242.645 632.569C308.769 648.142 374.892 663.712 441.015 679.278C461.299 684.044 499.732 701.725 499.732 701.725C499.732 701.725 531.662 736.561 531.156 760.952C530.649 784.991 516.437 802.564 497.438 816.876C477.42 831.956 458.052 829.148 437.689 828C361.38 823.691 142.607 680.706 90.1349 662.428C56.4179 650.695 19.5539 633.459 5.33607 595.543C-12.3664 548.342 16.7639 491.235 56.5271 469.678C96.2805 448.109 142.368 452.887 185.696 460.147C229.024 467.406 273.781 476.645 315.957 462.852C358.132 449.058 396.774 404.093 392.614 352.712C388.99 308.005 354.847 274.317 318.915 259.469C290.788 247.842 260.864 244.68 231.317 239.446C223.116 238.006 214.945 236.39 206.854 234.399C186.131 229.279 165.917 221.626 146.538 211.566C126.203 201.031 106.885 187.955 88.9138 172.562C74.5803 160.302 61.1854 146.585 48.8826 131.567C47.0059 129.272 45.1492 126.926 43.3124 124.529C41.5652 122.234 39.8374 119.892 38.1499 117.504C16.1881 86.5556 -0.0352993 48.441 4.83002 9.16756C9.68467 -30.0006 35.5684 -62.6116 66.3862 -78.2789C84.1978 -87.3303 103.409 -91.3818 122.859 -91.9673C137.081 -92.3025 151.298 -91.0952 165.333 -88.3607C230.275 -76.1126 289.785 -38.8998 345.991 1.39246C402.185 41.6847 456.95 85.9116 518.04 114.635C579.13 143.37 648.668 155.536 710.642 129.553C772.615 103.581 823.527 32.7152 820.499 -44.7663C861.603 -3.02207 896.531 49.4483 912 110.759C927.469 172.07 921.253 242.865 887.844 293.263Z" fill="#80C1EF"/>
</svg>
